<?xml version="1.0" standalone="no"?>
<!DOCTYPE svg PUBLIC "-//W3C//DTD SVG 20010904//EN"
 "http://www.w3.org/TR/2001/REC-SVG-20010904/DTD/svg10.dtd">
<svg version="1.0" xmlns="http://www.w3.org/2000/svg"
 width="271.000000pt" height="271.000000pt" viewBox="0 0 271.000000 271.000000"
 preserveAspectRatio="xMidYMid meet">
<metadata>
Created by potrace 1.11, written by Peter Selinger 2001-2013
</metadata>
<g transform="translate(0.000000,271.000000) scale(0.100000,-0.100000)"
fill="#000000" stroke="none">
<path d="M0 1355 c0 -1198 2 -1355 15 -1355 13 0 15 56 15 440 0 384 2 440 15
440 13 0 15 -56 15 -440 l0 -440 305 0 305 0 0 440 0 440 -155 0 -155 0 0 440
0 440 285 0 285 0 0 -439 c0 -409 -1 -439 -17 -443 -17 -5 -18 -33 -15 -441
l2 -437 45 0 45 0 0 440 c0 433 0 440 20 440 20 0 20 -7 20 -440 l0 -440 85 0
85 0 0 440 0 440 -25 0 -25 0 0 435 c0 340 -3 437 -12 440 -7 2 -49 6 -93 7
l-80 3 -3 432 -2 432 210 1 210 1 0 -436 0 -435 70 0 70 0 0 435 0 435 125 0
125 0 0 -435 c0 -283 3 -435 10 -435 7 0 10 -153 10 -440 l0 -440 -95 0 -95 0
0 -440 0 -440 115 0 115 0 0 440 0 440 35 0 35 0 3 -442 2 -443 3 443 2 442
79 0 c63 0 80 3 85 16 3 9 6 202 6 430 0 269 3 414 10 414 7 0 10 -150 10
-430 l0 -431 98 3 c68 2 97 7 98 16 1 6 2 203 3 437 l1 425 85 0 85 0 0 435 0
435 120 0 120 0 0 40 0 40 -1355 0 -1355 0 0 -1355z m1910 840 l0 -435 -45 0
-45 0 0 435 0 435 45 0 45 0 0 -435z"/>
<path d="M2623 1098 c4 -364 7 -760 7 -880 l0 -218 40 0 40 0 0 440 c0 287 -3
440 -10 440 -7 0 -10 151 -10 434 0 276 -4 437 -10 441 -6 4 -11 -148 -13
-437 l-2 -443 -3 443 -2 442 -22 0 -21 0 6 -662z"/>
<path d="M700 440 l0 -440 55 0 55 0 -2 438 -3 437 -27 3 c-18 2 -28 -1 -28
-9 0 -10 -3 -10 -12 -1 -37 37 -38 26 -38 -428z"/>
<path d="M2326 858 c-3 -13 -6 -211 -6 -440 l0 -418 145 0 145 0 0 434 c0 386
-2 435 -16 440 -9 3 -71 6 -139 6 -119 0 -123 -1 -129 -22z"/>
</g>
</svg>
