<?xml version="1.0" standalone="no"?>
<!DOCTYPE svg PUBLIC "-//W3C//DTD SVG 20010904//EN"
 "http://www.w3.org/TR/2001/REC-SVG-20010904/DTD/svg10.dtd">
<svg version="1.0" xmlns="http://www.w3.org/2000/svg"
 width="303.000000pt" height="303.000000pt" viewBox="0 0 303.000000 303.000000"
 preserveAspectRatio="xMidYMid meet">
<metadata>
Created by potrace 1.11, written by Peter Selinger 2001-2013
</metadata>
<g transform="translate(0.000000,303.000000) scale(0.100000,-0.100000)"
fill="#000000" stroke="none">
<path d="M1428 2943 c-10 -2 -18 -8 -18 -12 0 -5 -20 -14 -45 -21 -24 -7 -43
-15 -41 -19 2 -3 -14 -7 -37 -9 -22 -1 -54 -9 -71 -17 -32 -14 -159 -46 -186
-47 -31 0 -140 -40 -175 -64 -19 -13 -64 -34 -99 -46 -58 -20 -65 -25 -68 -53
l-3 -30 175 0 c233 0 360 -11 445 -40 39 -13 85 -26 103 -30 18 -4 30 -11 26
-16 -9 -15 10 -9 34 10 22 19 31 71 12 71 -5 0 -10 16 -10 35 0 31 3 35 28 36
26 1 26 1 -8 15 l-35 14 32 -6 c60 -10 87 10 56 43 -22 25 -8 48 30 51 42 4
45 10 18 43 -10 13 -16 30 -14 37 3 6 0 12 -6 12 -6 0 -11 6 -11 14 0 8 -4 17
-10 21 -13 8 -101 14 -122 8z"/>
<path d="M1343 2466 c-9 -15 -111 -26 -116 -12 -1 4 -21 0 -42 -9 -67 -29 -93
-34 -100 -22 -3 7 -3 1 -1 -11 4 -22 3 -23 -13 -8 -11 10 -25 14 -36 10 -14
-6 -16 -4 -10 7 7 12 6 12 -7 1 -13 -10 -17 -10 -20 0 -3 9 -14 3 -32 -17 -15
-17 -24 -24 -20 -16 4 9 3 12 -3 8 -19 -12 -25 -77 -10 -100 17 -27 27 -77 16
-77 -5 0 -9 -6 -9 -14 0 -7 -10 -17 -22 -21 -13 -4 -27 -9 -33 -10 -5 -2 -36
-9 -68 -16 -49 -10 -60 -10 -67 2 -5 7 -12 10 -16 6 -4 -3 4 -22 17 -42 26
-38 52 -44 87 -19 38 26 153 55 169 42 7 -6 16 -8 20 -4 3 3 0 6 -7 6 -11 0
-11 3 -2 12 10 10 15 10 21 -1 5 -7 13 -11 19 -7 5 3 21 0 34 -7 20 -10 23
-15 12 -25 -10 -9 -15 -8 -23 6 -10 16 -10 16 -11 -2 0 -12 -5 -16 -15 -12 -9
3 -15 -1 -15 -11 0 -11 -4 -13 -12 -5 -7 5 -27 8 -44 5 -34 -5 -88 -46 -76
-58 4 -4 -4 -4 -17 0 -15 4 -21 3 -17 -3 3 -5 -9 -13 -28 -16 -19 -4 -36 -14
-40 -24 -3 -9 -15 -32 -26 -49 -11 -18 -16 -33 -12 -33 4 0 -1 -5 -10 -11 -10
-5 -18 -17 -18 -24 0 -9 -10 -15 -25 -15 -25 0 -30 18 -12 47 4 6 4 19 0 29
-4 12 -3 15 5 10 8 -4 10 -2 6 8 -3 8 0 25 7 38 7 13 14 30 15 38 2 8 11 20
20 27 10 7 16 13 13 14 -58 8 -67 6 -66 -17 0 -26 -28 -58 -42 -50 -5 4 -16 3
-25 0 -14 -5 -13 -10 7 -34 18 -21 23 -38 21 -71 -2 -40 -4 -44 -28 -45 -32
-1 -45 -12 -28 -23 7 -4 -15 -6 -49 -5 -33 1 -63 5 -67 8 -3 3 -21 6 -40 6
-20 0 -33 -3 -29 -6 3 -3 -7 -17 -24 -31 -16 -14 -27 -29 -24 -33 3 -5 -2 -16
-11 -24 -14 -15 -14 -16 3 -16 15 0 16 -2 3 -10 -12 -8 -13 -12 -2 -19 18 -11
27 -128 11 -147 -8 -10 -8 -14 0 -14 6 0 11 -4 11 -10 0 -5 -7 -10 -15 -10 -8
0 -15 -5 -15 -11 0 -5 -4 -7 -10 -4 -6 4 -7 -6 -4 -27 6 -32 6 -32 -10 -12
-14 19 -14 27 -2 68 8 26 10 48 5 52 -9 5 -14 -4 -22 -41 -4 -18 -5 -18 -6 3
0 12 -6 22 -12 22 -14 0 -7 -70 11 -115 6 -16 12 -32 12 -35 1 -3 12 -24 24
-48 13 -24 20 -50 17 -58 -3 -8 1 -14 10 -14 22 0 29 -15 21 -45 -5 -20 -9
-23 -19 -15 -10 9 -16 6 -25 -10 -6 -11 -8 -25 -5 -30 3 -6 2 -10 -3 -10 -6 0
-8 -9 -5 -20 3 -11 10 -20 15 -20 6 0 8 -7 5 -15 -4 -8 -2 -17 3 -20 6 -4 10
9 10 29 0 30 4 36 20 36 12 0 20 6 19 13 -1 6 -1 23 0 37 l2 25 19 -24 c11
-13 20 -38 20 -55 0 -18 3 -36 8 -40 4 -4 8 -22 10 -39 10 -113 16 -132 50
-181 36 -52 67 -86 77 -86 14 0 53 -44 48 -56 -3 -8 9 -17 36 -25 25 -7 41
-18 41 -27 0 -12 3 -12 14 3 11 15 17 17 28 8 8 -7 19 -8 27 -3 8 4 34 6 59 3
38 -4 44 -2 39 11 -4 9 -5 16 -4 16 1 0 28 4 60 10 58 9 87 6 87 -11 0 -5 -22
-9 -50 -9 -27 0 -50 -4 -50 -9 0 -14 58 -19 225 -20 83 -1 158 -4 169 -7 10
-3 22 -1 26 6 4 6 13 12 21 13 43 7 79 31 79 53 0 13 5 24 11 24 6 0 26 7 45
16 35 17 62 11 34 -6 -8 -5 -15 -15 -15 -22 0 -7 -8 -12 -18 -12 -15 2 -16 -1
-5 -13 10 -13 14 -13 26 4 7 10 18 17 25 16 7 -1 35 27 62 63 65 84 110 126
165 156 64 34 127 99 146 151 3 9 11 17 17 17 6 0 7 3 4 7 -4 3 2 16 12 27 11
12 25 40 30 64 6 23 16 61 22 85 24 93 33 227 16 227 -8 0 -8 3 2 9 9 6 11 15
6 27 -4 11 -9 26 -9 34 -7 66 -20 100 -37 100 -11 0 -19 -7 -19 -15 0 -9 -10
-15 -27 -16 -17 -1 -21 -3 -10 -6 9 -2 17 -9 17 -14 0 -6 5 -7 12 -3 7 5 9 2
5 -8 -3 -9 1 -33 8 -54 12 -34 11 -41 -2 -56 -9 -10 -12 -18 -8 -18 4 0 1 -8
-8 -18 -11 -11 -13 -22 -7 -28 9 -9 -21 -116 -39 -138 -5 -6 -12 -32 -16 -58
-9 -58 -51 -123 -106 -163 -22 -16 -49 -46 -59 -65 -26 -49 -57 -79 -120 -114
-19 -11 -40 -25 -47 -30 -29 -25 -40 -33 -76 -50 -21 -10 -41 -15 -44 -12 -4
3 -12 1 -19 -5 -21 -17 -63 31 -57 65 4 18 11 26 22 23 25 -5 106 29 171 73
62 42 163 148 154 162 -3 4 2 8 10 8 9 0 16 3 16 8 0 9 -138 7 -148 -3 -4 -3
-8 -11 -8 -16 -1 -5 -2 -13 -3 -18 -1 -10 -79 -41 -103 -41 -18 0 -68 54 -68
74 0 7 11 18 25 24 34 16 35 15 35 -7 0 -12 9 -20 25 -23 14 -3 25 -2 25 3 0
14 -53 49 -75 49 -30 0 -68 -42 -59 -65 5 -12 4 -16 -3 -12 -6 4 -13 0 -16 -7
-7 -19 -48 -17 -63 3 -9 11 -13 11 -19 1 -5 -8 -2 -16 9 -22 22 -12 20 -35 -2
-40 -42 -11 -52 64 -11 77 25 8 80 61 72 69 -4 3 -19 6 -35 6 -15 0 -54 12
-86 28 -55 26 -57 28 -51 57 4 17 7 24 8 16 1 -11 4 -11 16 -1 12 10 18 10 30
0 12 -10 15 -10 15 4 0 9 5 16 11 16 5 0 34 23 64 51 29 28 56 50 59 50 3 -1
14 -1 23 -1 14 0 14 3 -5 15 -28 21 -24 63 13 110 15 20 24 39 21 42 -3 3 1
15 9 27 8 11 15 28 15 37 0 14 6 15 46 8 25 -5 58 -18 74 -29 39 -28 52 -26
40 5 -9 23 -8 24 23 19 46 -7 46 -7 104 12 53 18 60 27 70 88 3 17 -1 32 -8
37 -10 6 -10 11 1 24 7 9 16 33 20 53 7 35 5 -111 -2 -169 -2 -19 6 -34 35
-58 l37 -33 0 33 c0 19 4 51 9 72 5 22 5 37 0 37 -5 0 1 15 13 34 21 32 38 38
38 15 0 -6 -4 -7 -10 -4 -5 3 -10 -1 -10 -10 0 -9 5 -13 10 -10 6 3 10 2 10
-4 0 -5 -7 -14 -16 -19 -18 -10 -11 -32 9 -32 7 0 6 4 -3 10 -13 8 -12 10 3
10 9 0 17 -4 17 -10 0 -5 7 -10 15 -10 8 0 15 5 15 10 0 6 -3 10 -7 10 -5 0
-9 23 -10 51 -1 28 -7 57 -13 64 -6 7 -10 17 -9 21 1 5 1 18 0 29 -1 15 -4 16
-13 7 -10 -10 -10 -15 -1 -20 8 -5 3 -21 -19 -52 -28 -41 -33 -35 -13 13 4 10
3 17 -3 17 -6 0 -13 -8 -15 -17 -3 -10 -5 -1 -4 20 1 21 5 41 9 43 4 3 1 16
-8 29 -23 35 -28 82 -9 82 8 0 15 -8 15 -18 0 -10 5 -21 10 -24 6 -3 10 -14
10 -25 0 -27 27 -33 34 -7 9 35 7 75 -4 82 -6 4 -10 14 -8 24 1 9 -10 30 -25
46 -15 17 -27 37 -27 47 0 10 -11 19 -30 23 -16 4 -30 10 -30 15 0 5 -20 29
-44 55 -40 43 -47 47 -95 49 -63 3 -102 -15 -167 -79 -25 -25 -59 -52 -75 -60
-16 -9 -29 -20 -29 -25 0 -11 -28 -9 -46 3 -7 4 -14 -1 -17 -13 -3 -11 -13
-20 -22 -20 -9 0 -13 -4 -10 -10 3 -6 -5 -11 -19 -11 -14 -1 -30 -3 -36 -4 -5
-1 -16 -3 -24 -4 -8 0 -22 -8 -31 -17 -12 -13 -19 -14 -30 -4 -11 9 -15 9 -15
1 0 -17 -37 -13 -44 5 -4 9 -2 13 5 8 6 -4 14 -3 18 2 9 13 89 51 133 64 21 6
41 16 44 22 4 6 -1 8 -15 3 -35 -11 -26 27 12 46 17 9 31 22 30 28 -2 6 2 10
9 9 7 -2 13 9 13 26 0 17 7 31 15 34 13 3 13 2 0 -7 -9 -7 -11 -11 -3 -11 7 0
16 6 20 13 4 7 25 21 46 32 20 11 37 22 37 25 0 3 -21 6 -47 7 -92 4 -95 4
-89 19 7 18 -1 18 -11 0z m181 -248 c-6 -10 -4 -10 8 0 12 9 18 10 23 2 10
-16 -3 -62 -15 -55 -6 4 -13 0 -16 -9 -3 -8 -13 -17 -22 -21 -14 -5 -14 -4 -5
6 10 10 10 16 0 28 -9 12 -9 13 1 7 6 -4 12 -2 12 3 0 6 -4 11 -10 11 -5 0 -2
9 7 20 20 23 28 26 17 8z m-74 -58 c-8 -5 -19 -10 -25 -10 -5 0 -3 5 5 10 8 5
20 10 25 10 6 0 3 -5 -5 -10z m360 -32 c0 -7 3 -23 6 -34 3 -13 0 -23 -8 -26
-9 -4 -13 6 -15 33 0 22 3 39 8 39 5 0 9 -6 9 -12z m-258 -15 c-6 -3 -9 -10
-5 -16 4 -7 0 -6 -10 1 -9 8 -22 10 -28 6 -8 -5 -9 -3 -5 5 5 7 14 10 22 7 7
-3 16 -1 20 5 3 6 9 7 13 3 3 -4 0 -9 -7 -11z m-493 -105 c54 -12 63 -26 32
-45 -16 -10 -24 -9 -43 6 -30 22 -72 22 -76 -2 -5 -27 51 -77 87 -77 17 0 31
-5 31 -11 0 -13 -56 -3 -87 17 -23 14 -59 72 -55 87 3 9 -23 -5 -53 -28 -15
-12 -17 -18 -7 -24 8 -5 2 -8 -17 -8 -29 0 -29 1 -13 23 9 13 23 24 30 24 6 0
12 5 12 10 0 13 57 39 87 40 12 0 44 -5 72 -12z m132 -18 c11 7 20 7 24 0 3
-5 17 -10 31 -10 13 0 24 -4 24 -10 0 -5 7 -10 15 -10 8 0 15 -4 15 -10 0 -5
9 -10 20 -10 13 0 18 -5 14 -15 -4 -8 1 -17 10 -21 25 -10 21 -63 -6 -73 -13
-5 -30 -5 -40 0 -9 5 -31 7 -50 4 -28 -4 -30 -4 -8 4 l25 9 -25 1 c-20 1 -22
3 -10 11 10 6 3 8 -25 4 -38 -5 -39 -4 -21 10 19 15 19 16 -11 16 -37 0 -38 2
-47 54 -7 36 -6 38 14 33 17 -4 20 -2 15 11 -5 13 -4 14 6 5 8 -8 18 -9 30 -3z
m349 -4 c0 -3 -4 -8 -10 -11 -5 -3 -10 -1 -10 4 0 6 5 11 10 11 6 0 10 -2 10
-4z m270 -31 c0 -8 -4 -15 -10 -15 -5 0 -10 7 -10 15 0 8 5 15 10 15 6 0 10
-7 10 -15z m144 -20 c-4 -8 -11 -15 -16 -15 -6 0 -5 6 2 15 7 8 14 15 16 15 2
0 1 -7 -2 -15z m-446 -62 c-9 -2 -15 -10 -12 -18 7 -18 -15 -30 -29 -15 -10
10 -8 12 7 6 15 -5 17 -4 7 8 -13 15 -1 25 29 24 11 0 10 -2 -2 -5z m-798 -22
c0 -6 -4 -13 -10 -16 -5 -3 -10 1 -10 9 0 9 5 16 10 16 6 0 10 -4 10 -9z m737
-17 c-3 -3 -12 -4 -19 -1 -8 3 -5 6 6 6 11 1 17 -2 13 -5z m-63 -31 c4 -9 2
-21 -4 -27 -8 -8 -9 -5 -4 9 6 16 5 18 -7 8 -14 -14 -51 -17 -63 -6 -3 4 8 12
26 19 45 16 45 16 52 -3z m46 7 c0 -5 -4 -10 -10 -10 -5 0 -10 -4 -10 -10 0
-5 8 -7 18 -4 14 5 14 4 2 -4 -18 -14 -29 -7 -27 18 1 20 27 29 27 10z m60 3
c0 -5 -11 -9 -25 -9 -14 -1 -25 2 -25 7 0 5 11 9 25 9 14 0 25 -3 25 -7z
m-333 -505 c-3 -8 -6 -5 -6 6 -1 11 2 17 5 13 3 -3 4 -12 1 -19z m153 -58 c0
-5 -4 -10 -10 -10 -5 0 -10 5 -10 10 0 6 5 10 10 10 6 0 10 -4 10 -10z m-557
-15 c-3 -9 -8 -14 -10 -11 -3 3 -2 9 2 15 9 16 15 13 8 -4z m354 -65 c3 -3 3
5 0 17 -8 34 12 39 39 9 18 -18 35 -26 59 -26 36 0 56 -17 34 -30 -10 -7 -10
-11 0 -24 12 -14 9 -16 -24 -16 -29 0 -43 7 -61 28 -13 15 -24 23 -24 17 0 -5
-5 -3 -10 5 -7 12 -11 10 -19 -10 -9 -24 -10 -24 -10 -2 -1 12 -6 22 -12 22
-7 0 -9 9 -6 21 5 17 3 18 -9 8 -13 -11 -14 -9 -3 14 l12 27 14 -27 c8 -15 17
-30 20 -33z m473 -20 c0 -5 -7 -10 -16 -10 -8 0 -12 5 -9 10 3 6 10 10 16 10
5 0 9 -4 9 -10z m-43 -6 c-3 -3 -12 -4 -19 -1 -8 3 -5 6 6 6 11 1 17 -2 13 -5z
m-240 -226 c-3 -8 -6 -5 -6 6 -1 11 2 17 5 13 3 -3 4 -12 1 -19z m-19 -10 c-2
-18 -11 -24 -35 -26 -38 -4 -41 4 -11 29 29 26 50 24 46 -3z m97 -16 c-2 -2
-11 2 -19 11 -8 8 -12 18 -8 21 3 4 12 -1 19 -10 7 -10 11 -20 8 -22z m-326
-8 c-9 -11 -15 -11 -25 -3 -21 18 -17 27 11 21 20 -3 23 -7 14 -18z m291 6 c0
-5 -2 -10 -4 -10 -3 0 -8 5 -11 10 -3 6 -1 10 4 10 6 0 11 -4 11 -10z m-163
-10 c26 0 5 -14 -22 -16 -16 0 -25 5 -25 14 0 9 6 12 16 8 9 -3 23 -6 31 -6z"/>
<path d="M460 2302 c0 -15 40 -52 58 -52 20 0 9 23 -13 26 -11 2 -25 11 -32
20 -7 10 -13 13 -13 6z"/>
<path d="M547 2213 c10 -18 24 -33 32 -33 8 0 11 -6 7 -17 -4 -10 -4 -14 0
-10 4 4 18 -3 31 -15 12 -12 25 -19 27 -17 5 5 -41 57 -88 99 l-28 25 19 -32z"/>
<path d="M409 2174 c-6 -32 -5 -84 0 -84 4 0 11 4 17 10 11 11 50 15 73 9 7
-2 16 2 18 9 3 6 -2 12 -10 12 -9 0 -19 9 -22 20 -3 11 -12 20 -18 20 -7 0
-22 3 -34 6 -13 4 -24 2 -24 -2z"/>
<path d="M26 1981 l-26 -27 0 -455 0 -454 72 -28 c71 -27 71 -27 90 -8 10 11
18 25 18 31 0 13 17 13 25 0 3 -5 14 -10 23 -10 26 0 24 89 -3 112 -19 15 -19
17 -2 23 21 9 23 58 2 75 -8 7 -15 18 -15 24 0 7 -9 31 -20 54 -11 22 -20 49
-20 60 0 10 -4 22 -10 28 -13 13 -59 241 -62 307 -1 28 2 95 7 147 11 125 11
120 0 120 -5 1 -20 7 -31 15 -19 12 -24 11 -48 -14z"/>
<path d="M1970 1790 c0 -5 7 -10 15 -10 8 0 15 5 15 10 0 6 -7 10 -15 10 -8 0
-15 -4 -15 -10z"/>
<path d="M1915 1760 c-3 -5 -1 -10 4 -10 6 0 11 5 11 10 0 6 -2 10 -4 10 -3 0
-8 -4 -11 -10z"/>
<path d="M1918 1713 c7 -3 16 -2 19 1 4 3 -2 6 -13 5 -11 0 -14 -3 -6 -6z"/>
<path d="M1690 1699 c0 -5 5 -7 10 -4 6 3 10 8 10 11 0 2 -4 4 -10 4 -5 0 -10
-5 -10 -11z"/>
<path d="M1700 1684 c-19 -7 -29 -13 -22 -13 6 -1 12 -6 12 -12 0 -5 -5 -7
-11 -3 -7 4 -10 2 -8 -5 3 -7 9 -12 14 -11 5 1 13 -8 17 -20 12 -32 53 -24 54
11 1 14 4 30 7 36 12 19 -27 30 -63 17z"/>
<path d="M291 1644 c0 -11 3 -14 6 -6 3 7 2 16 -1 19 -3 4 -6 -2 -5 -13z"/>
<path d="M1636 1545 c5 -12 2 -14 -12 -8 -16 6 -17 5 -6 -9 8 -10 9 -19 3 -22
-5 -3 -12 0 -14 6 -3 7 -6 1 -6 -14 -1 -34 9 -59 20 -52 5 3 9 1 9 -4 0 -6 8
-13 17 -16 10 -4 15 -4 11 -1 -9 9 23 45 34 39 4 -3 8 2 8 10 0 9 4 16 10 16
5 0 9 11 8 24 -2 16 -6 22 -13 16 -6 -5 -20 -1 -35 10 -30 24 -41 25 -34 5z"/>
<path d="M900 750 c0 -5 5 -10 10 -10 6 0 10 5 10 10 0 6 -4 10 -10 10 -5 0
-10 -4 -10 -10z"/>
<path d="M1940 699 c0 -6 -6 -9 -12 -6 -17 6 -48 -11 -48 -25 0 -6 -11 -25
-24 -43 -16 -21 -21 -36 -16 -45 5 -8 6 -26 3 -41 -4 -21 -1 -27 16 -32 17 -4
21 0 22 21 l1 27 7 -25 c7 -25 7 -25 14 6 5 26 11 32 32 30 14 0 25 -5 25 -11
0 -5 16 -11 35 -11 19 -1 32 3 29 7 -3 5 1 9 10 9 8 0 16 -5 18 -12 3 -9 6 -9
12 0 4 7 2 12 -5 12 -7 0 -5 8 6 20 18 20 18 21 -1 14 -15 -6 -17 -4 -7 6 15
16 -8 41 -54 59 -22 9 -30 17 -26 29 4 10 2 13 -5 8 -7 -4 -12 -2 -12 3 0 6
-4 11 -10 11 -5 0 -10 -5 -10 -11z"/>
<path d="M548 564 c-4 -3 -4 -12 -1 -20 3 -8 0 -14 -6 -14 -6 0 -11 -6 -11
-14 0 -10 10 -14 32 -13 25 2 33 7 38 28 5 16 3 26 -4 26 -6 0 -18 4 -27 7 -8
4 -18 4 -21 0z"/>
<path d="M1793 488 c-18 -37 -23 -58 -14 -58 8 0 18 23 27 63 5 24 -1 21 -13
-5z"/>
<path d="M1537 418 c4 -43 2 -58 -7 -58 -7 0 -10 -8 -7 -20 3 -11 1 -18 -4
-14 -5 3 -21 -7 -35 -21 -15 -15 -38 -28 -53 -29 -14 -1 -31 -5 -37 -9 -7 -4
-15 1 -18 10 -6 15 -9 15 -16 3 -5 -8 -6 -18 -4 -22 3 -4 7 -31 9 -59 3 -52
17 -80 29 -60 9 14 46 14 46 1 0 -5 7 -10 15 -10 9 0 15 9 15 25 0 16 4 23 13
19 21 -8 161 70 165 92 3 15 1 17 -9 7 -9 -9 -16 -10 -26 -2 -10 9 -13 8 -13
-4 0 -10 -6 -14 -15 -11 -8 4 -15 16 -15 28 0 14 3 17 8 8 7 -10 13 -8 26 7
15 16 15 21 3 28 -19 11 -38 68 -26 80 6 6 4 15 -6 23 -13 10 -15 9 -16 -6 0
-11 -6 -5 -14 16 -13 34 -13 34 -8 -22z"/>
<path d="M1730 441 c0 -9 -49 -35 -68 -36 -7 0 -17 -6 -21 -14 -6 -9 -12 -5
-22 18 -8 17 -17 31 -21 31 -11 0 -11 -1 17 -56 14 -27 23 -55 20 -61 -2 -7 0
-13 6 -13 5 0 12 7 15 15 4 8 12 15 18 15 16 0 58 44 51 53 -3 4 -2 5 1 2 8
-5 34 20 34 33 0 6 -7 12 -15 16 -8 3 -15 2 -15 -3z"/>
<path d="M780 380 c0 -13 11 -13 30 0 12 8 11 10 -7 10 -13 0 -23 -4 -23 -10z"/>
<path d="M1251 374 c0 -11 3 -14 6 -6 3 7 2 16 -1 19 -3 4 -6 -2 -5 -13z"/>
<path d="M1272 360 c0 -19 2 -27 5 -17 2 9 2 25 0 35 -3 9 -5 1 -5 -18z"/>
<path d="M1310 356 c0 -12 4 -27 9 -34 6 -10 10 -8 14 10 10 35 8 45 -8 45 -9
0 -15 -9 -15 -21z"/>
<path d="M518 291 c4 -10 1 -13 -12 -8 -10 4 -15 3 -11 -3 4 -6 -1 -18 -11
-27 -16 -16 -16 -16 -9 6 6 21 5 21 -14 9 -24 -15 -26 -24 -8 -32 9 -3 8 -8
-3 -18 -35 -30 -5 -110 54 -143 16 -9 16 -11 -3 -32 -31 -33 -26 -39 32 -40
62 -1 73 4 55 25 -33 41 -44 88 -44 182 1 83 -1 96 -15 96 -11 0 -15 -6 -11
-15z"/>
<path d="M2215 206 c-10 -7 -27 -11 -37 -8 -12 3 -18 -1 -19 -14 -1 -11 -2
-45 -3 -78 -2 -41 -7 -62 -19 -71 -30 -22 -19 -35 27 -35 36 0 46 4 51 21 4
11 4 23 1 26 -3 4 -6 -2 -6 -13 -1 -17 -2 -17 -20 4 -16 20 -17 27 -7 50 6 15
17 31 25 35 7 5 10 17 7 27 -4 14 2 21 29 30 38 12 76 2 40 -11 -13 -4 -7 -6
19 -6 20 1 37 2 37 3 0 1 -17 13 -38 28 -43 29 -60 32 -87 12z"/>
<path d="M2910 188 c0 -18 18 -34 28 -24 3 4 -2 14 -11 23 -16 16 -17 16 -17
1z"/>
<path d="M415 170 c3 -5 8 -10 11 -10 2 0 4 5 4 10 0 6 -5 10 -11 10 -5 0 -7
-4 -4 -10z"/>
<path d="M1315 170 c7 -12 45 -14 45 -2 0 4 -11 9 -26 10 -14 1 -23 -2 -19 -8z"/>
<path d="M2440 160 c0 -5 6 -10 13 -10 8 0 7 -4 -3 -10 -13 -8 -12 -15 8 -51
23 -45 23 -60 -3 -39 -26 21 -16 -5 10 -28 15 -14 38 -22 58 -21 l32 1 -34 14
c-44 20 -36 25 17 13 23 -5 53 -7 66 -3 14 3 27 -1 35 -10 10 -12 33 -16 92
-16 68 0 85 4 119 25 22 14 40 32 40 40 0 25 -37 17 -60 -13 -19 -24 -21 -24
-17 -6 3 13 -5 33 -18 50 l-23 29 -7 -27 c-4 -15 -10 -27 -14 -26 -16 2 -71
-15 -71 -23 0 -5 -9 -9 -20 -9 -17 0 -19 5 -13 32 4 22 3 29 -5 24 -8 -5 -13
6 -14 36 l-1 43 -4 -40 -5 -40 -15 35 c-16 35 -16 35 -23 10 -5 -14 -9 -18 -9
-10 -1 9 -4 11 -9 5 -13 -20 -70 -17 -81 4 -6 10 -7 21 -4 25 3 3 -3 6 -15 6
-12 0 -22 -4 -22 -10z"/>
<path d="M2525 160 c3 -5 8 -10 11 -10 2 0 4 5 4 10 0 6 -5 10 -11 10 -5 0 -7
-4 -4 -10z"/>
<path d="M2875 146 c-3 -9 -7 -23 -10 -31 -2 -8 -1 -15 4 -15 10 0 25 50 17
58 -3 2 -8 -3 -11 -12z"/>
<path d="M2253 106 c-6 -19 -7 -39 -3 -46 4 -7 10 6 14 31 8 52 3 60 -11 15z"/>
<path d="M2280 125 c0 -8 4 -15 10 -15 5 0 7 7 4 15 -4 8 -8 15 -10 15 -2 0
-4 -7 -4 -15z"/>
<path d="M2691 128 c0 -10 -5 -18 -11 -18 -5 0 -10 -5 -10 -12 0 -6 3 -8 6 -5
4 3 15 2 25 -4 13 -6 19 -6 19 1 0 5 -4 10 -9 10 -5 0 -12 10 -14 23 -3 14 -5
16 -6 5z"/>
<path d="M1350 120 c0 -5 5 -10 10 -10 6 0 10 5 10 10 0 6 -4 10 -10 10 -5 0
-10 -4 -10 -10z"/>
<path d="M1405 100 c4 -6 11 -8 16 -5 14 9 11 15 -7 15 -8 0 -12 -5 -9 -10z"/>
<path d="M1359 83 c-12 -15 -12 -16 4 -10 10 4 23 7 28 7 6 0 7 5 4 10 -9 15
-21 12 -36 -7z"/>
<path d="M2221 84 c0 -11 3 -14 6 -6 3 7 2 16 -1 19 -3 4 -6 -2 -5 -13z"/>
<path d="M2275 70 c3 -5 11 -10 16 -10 6 0 7 5 4 10 -3 6 -11 10 -16 10 -6 0
-7 -4 -4 -10z"/>
<path d="M2241 14 c0 -11 3 -14 6 -6 3 7 2 16 -1 19 -3 4 -6 -2 -5 -13z"/>
</g>
</svg>
